<svg width="774" height="100" viewBox="0 0 774 100" fill="none" xmlns="http://www.w3.org/2000/svg">
<path d="M0 98.3886H14.6445V64.2654H34.5498C57.0616 64.2654 68.2464 50.6635 68.1991 32.7488C68.2464 14.8815 57.1564 1.32701 34.5972 1.32701H0V98.3886ZM14.6445 51.8483V13.8863H33.0332C47.5355 13.8863 53.5071 21.801 53.4597 32.7488C53.5071 43.7915 47.5355 51.8483 33.2227 51.8483H14.6445Z" fill="black"/>
<path d="M153.17 1.32701V65.3081C153.17 78.91 142.317 86.5403 129.236 86.5403C116.251 86.5403 105.35 78.91 105.35 65.3081V1.32701H90.7057V65.545C90.7057 87.4408 107.767 100 129.236 100C150.706 100 167.815 87.4408 167.815 65.545V1.32701H153.17Z" fill="black"/>
<path d="M194.445 98.3886H209.089V61.1848H230.132L249.942 98.3886H266.577L245.061 58.5782C256.862 53.9336 262.881 43.8863 262.881 31.3744C262.881 13.3649 250.985 1.32701 230.606 1.32701H194.445V98.3886ZM209.089 49.0047V13.8863H229.705C241.554 13.8863 248.094 20.5213 248.094 31.6114C248.094 42.3223 241.885 49.0047 228.615 49.0047H209.089Z" fill="black"/>
<path d="M286.193 98.3886H347.615V85.782H300.837V56.0663H343.871V43.5071H300.837V13.9337H347.046V1.32701H286.193V98.3886Z" fill="black"/>
<path d="M412.604 98.3886H427.249V64.2654H447.154C469.666 64.2654 480.851 50.6635 480.803 32.7488C480.851 14.8815 469.761 1.32701 447.201 1.32701H412.604V98.3886ZM427.249 51.8483V13.8863H445.637C460.14 13.8863 466.111 21.801 466.064 32.7488C466.111 43.7915 460.14 51.8483 445.827 51.8483H427.249Z" fill="black"/>
<path d="M587.623 49.8578C587.623 18.8152 569.045 0 543.926 0C518.713 0 500.182 18.8152 500.182 49.8578C500.182 80.8531 518.713 99.7156 543.926 99.7156C569.045 99.7156 587.623 80.9005 587.623 49.8578ZM573.12 49.8578C573.12 73.5071 560.609 86.3507 543.926 86.3507C527.196 86.3507 514.732 73.5071 514.732 49.8578C514.732 26.2085 527.196 13.3649 543.926 13.3649C560.609 13.3649 573.12 26.2085 573.12 49.8578Z" fill="black"/>
<path d="M611.219 98.3886H625.864V61.1848H646.907L666.717 98.3886H683.352L661.835 58.5782C673.636 53.9336 679.655 43.8863 679.655 31.3744C679.655 13.3649 667.76 1.32701 647.381 1.32701H611.219V98.3886ZM625.864 49.0047V13.8863H646.48C658.328 13.8863 664.869 20.5213 664.869 31.6114C664.869 42.3223 658.66 49.0047 645.39 49.0047H625.864Z" fill="black"/>
<path d="M698.181 13.9337H728.418V98.3886H743.015V13.9337H773.299V1.32701H698.181V13.9337Z" fill="black"/>
</svg>
