<svg width="226" height="28" viewBox="0 0 226 28" fill="none" xmlns="http://www.w3.org/2000/svg">
<path d="M4.74018 27.4687H0V0.445657H11.8707C14.5987 0.445657 16.7459 1.25594 18.3125 2.87652C19.906 4.49709 20.7028 6.5093 20.7028 8.91315C20.7028 11.29 19.906 13.3022 18.3125 14.9498C16.7459 16.5704 14.5987 17.3806 11.8707 17.3806H4.74018V27.4687ZM11.2225 13.2077C12.5729 13.2077 13.6803 12.816 14.5446 12.0328C15.4089 11.2495 15.8411 10.2096 15.8411 8.91315C15.8411 7.61669 15.4089 6.57683 14.5446 5.79355C13.6803 5.01027 12.5729 4.61863 11.2225 4.61863H4.74018V13.2077H11.2225Z" fill="black"/>
<path d="M37.9781 27.9549C34.1427 27.9549 31.2257 26.9555 29.227 24.9568C27.2553 22.9581 26.2694 20.2437 26.2694 16.8134V0.445657H31.0501V16.6514C31.0501 18.8392 31.6443 20.5678 32.8327 21.8372C34.0482 23.1067 35.7633 23.7414 37.9781 23.7414C40.1928 23.7414 41.8944 23.1067 43.0829 21.8372C44.2713 20.5678 44.8655 18.8392 44.8655 16.6514V0.445657H49.6462V16.7729C49.6462 20.2302 48.6468 22.9581 46.6481 24.9568C44.6764 26.9555 41.7864 27.9549 37.9781 27.9549Z" fill="black"/>
<path d="M77.9151 27.4687H72.4456L66.4495 17.3806H61.7499V27.4687H57.0097V0.445657H68.8804C71.5273 0.445657 73.6611 1.22893 75.2816 2.79549C76.9022 4.36204 77.7125 6.40127 77.7125 8.91315C77.7125 11.182 77.0913 13.0051 75.8488 14.3826C74.6064 15.7331 73.0939 16.5569 71.3112 16.854L77.9151 27.4687ZM68.2322 13.2077C69.5826 13.2077 70.69 12.816 71.5543 12.0328C72.4186 11.2495 72.8508 10.2096 72.8508 8.91315C72.8508 7.61669 72.4186 6.57683 71.5543 5.79355C70.69 5.01027 69.5826 4.61863 68.2322 4.61863H61.7499V13.2077H68.2322Z" fill="black"/>
<path d="M102.585 27.4687H84.0704V0.445657H102.585V4.61863H88.8106V11.6276H102.302V15.8006H88.8106V23.2957H102.585V27.4687Z" fill="black"/>
<path d="M125.84 27.4687H121.1V0.445657H132.971C135.699 0.445657 137.846 1.25594 139.412 2.87652C141.006 4.49709 141.803 6.5093 141.803 8.91315C141.803 11.29 141.006 13.3022 139.412 14.9498C137.846 16.5704 135.699 17.3806 132.971 17.3806H125.84V27.4687ZM132.322 13.2077C133.673 13.2077 134.78 12.816 135.645 12.0328C136.509 11.2495 136.941 10.2096 136.941 8.91315C136.941 7.61669 136.509 6.57683 135.645 5.79355C134.78 5.01027 133.673 4.61863 132.322 4.61863H125.84V13.2077H132.322Z" fill="black"/>
<path d="M169.895 24.025C167.302 26.6449 163.994 27.9549 159.969 27.9549C155.945 27.9549 152.636 26.6449 150.043 24.025C147.45 21.3781 146.154 18.0289 146.154 13.9774C146.154 9.92601 147.45 6.59033 150.043 3.9704C152.636 1.32347 155.945 0 159.969 0C163.994 0 167.302 1.32347 169.895 3.9704C172.488 6.59033 173.785 9.92601 173.785 13.9774C173.785 18.0289 172.488 21.3781 169.895 24.025ZM159.969 23.7414C162.643 23.7414 164.804 22.8231 166.452 20.9864C168.099 19.1228 168.923 16.7864 168.923 13.9774C168.923 11.1414 168.099 8.80511 166.452 6.96846C164.804 5.13182 162.643 4.21349 159.969 4.21349C157.268 4.21349 155.094 5.13182 153.446 6.96846C151.826 8.80511 151.016 11.1414 151.016 13.9774C151.016 16.8134 151.826 19.1498 153.446 20.9864C155.094 22.8231 157.268 23.7414 159.969 23.7414Z" fill="black"/>
<path d="M200.874 27.4687H195.405L189.409 17.3806H184.709V27.4687H179.969V0.445657H191.84C194.487 0.445657 196.62 1.22893 198.241 2.79549C199.862 4.36204 200.672 6.40127 200.672 8.91315C200.672 11.182 200.051 13.0051 198.808 14.3826C197.566 15.7331 196.053 16.5569 194.271 16.854L200.874 27.4687ZM191.192 13.2077C192.542 13.2077 193.649 12.816 194.514 12.0328C195.378 11.2495 195.81 10.2096 195.81 8.91315C195.81 7.61669 195.378 6.57683 194.514 5.79355C193.649 5.01027 192.542 4.61863 191.192 4.61863H184.709V13.2077H191.192Z" fill="black"/>
<path d="M217.816 27.4687H213.076V4.61863H204.892V0.445657H226V4.61863H217.816V27.4687Z" fill="black"/>
</svg>
